<?xml version="1.0" encoding="utf-8"?>
<!DOCTYPE svg PUBLIC "-//W3C//DTD SVG 1.0//EN" "http://www.w3.org/TR/2001/REC-SVG-20010904/DTD/svg10.dtd">
<svg version="1.0" xmlns="http://www.w3.org/2000/svg" width="500px" height="500px" viewBox="0 0 500 500" preserveAspectRatio="xMidYMid meet">
 <g fill="#000000">
  <path d="M2.5 497.6 l-2.5 -2.5 0 -73.9 c0 -73.3 0 -74 2.1 -76.6 2.5 -3.1 6.6 -3.4 10 -0.7 l2.4 1.9 0.3 70.1 0.3 70.1 69.5 0 69.5 0 2.4 2.5 c3 2.9 3.2 5.5 0.6 8.6 l-1.9 2.4 -75.1 0.3 -75.2 0.2 -2.4 -2.4z"/>
  <path d="M343.5 497.5 c-1.4 -1.3 -2.5 -3.1 -2.5 -3.9 0 -3.1 2.4 -6.5 5.3 -7.6 2 -0.6 26 -1 70.8 -1 l67.8 0 0.3 -69.6 0.3 -69.6 2.4 -1.9 c3.4 -2.8 7.5 -2.4 10 0.8 2.1 2.6 2.1 2.8 1.9 77 l-0.3 74.5 -2.4 1.9 c-2.2 1.8 -5 1.9 -76.8 1.9 l-74.4 0 -2.4 -2.5z"/>
  <path d="M245 483 c-1.9 -1.9 -2 -3.3 -2 -28.4 0 -26.2 0 -26.5 2.2 -28 3.1 -2.2 7.4 -2 9.8 0.4 1.9 1.9 2 3.3 2 28 0 25.4 0 26 -2.2 28 -2.8 2.6 -7.2 2.6 -9.8 0z"/>
  <path d="M219 454.4 c-49.2 -7.7 -93.4 -32.2 -125.3 -69.3 -26.6 -31 -43.1 -67.8 -49.1 -109.7 l-0.6 -4.2 14.8 -0.4 c13.3 -0.3 15.1 -0.6 18.9 -2.7 6.4 -3.6 9.6 -9 10.1 -16.5 0.4 -6.7 -1 -10.8 -5.2 -15.4 -4.4 -4.9 -7.2 -5.7 -23.1 -6.2 l-15 -0.5 0.3 -4 c1 -14.9 9.3 -44.2 17.6 -61.9 19 -40.7 51.4 -74.6 91.8 -96.1 19.4 -10.3 46.8 -18.9 69.9 -22 l4.7 -0.6 0.4 14.3 c0.3 12.3 0.7 14.9 2.6 18.5 7.1 13.6 27.3 14.5 35.4 1.6 2.1 -3.4 2.4 -5.3 2.8 -18.8 l0.5 -15 5 0.3 c15.1 1 43.7 9.4 62.6 18.4 23.1 11 41.6 24.4 59.9 43.4 17 17.5 27.1 32.1 37.6 53.9 9.4 19.6 16.1 42.1 18.9 63.3 l0.7 5.2 -14.4 0 c-13.2 0 -14.9 0.2 -18.9 2.3 -12.5 6.6 -13.9 25.5 -2.6 34.1 4.5 3.4 10.3 4.5 24 4.6 l11.8 0 -0.6 4.8 c-11.1 79.7 -64.3 144.7 -139 169.9 -12.4 4.2 -32.4 8.8 -41 9.5 l-4 0.3 -0.5 -15.6 c-0.5 -15 -0.6 -15.7 -3.3 -19.8 -2 -2.9 -4.4 -5 -8 -6.7 -8.9 -4.1 -16.8 -2.7 -23.3 4.1 -5.2 5.4 -6.4 10.3 -6.4 26.5 0 6.6 -0.3 11.9 -0.7 11.9 -0.5 -0.1 -4.6 -0.7 -9.3 -1.5z m53.4 -51.9 c14.6 -2.4 28.9 -7 43.2 -14 17.2 -8.5 28.4 -16.5 42.5 -30.5 22.5 -22.4 37.9 -51.5 43.6 -82.4 2.4 -12.9 2.4 -37.9 -0.1 -51.1 -10.9 -58.9 -56 -107.5 -114.4 -123.4 -49.4 -13.5 -104.4 1.4 -143.5 38.8 -38.2 36.6 -55.3 88.3 -45.6 137.6 2.8 14 6.2 24.1 12.9 38 12.1 24.9 28.6 44.4 51.5 60.7 17.4 12.3 41.1 22.1 63.5 26.2 10.4 1.9 34.9 1.9 46.4 0.1z"/>
  <path d="M226 393.5 c-31.7 -5.1 -57.3 -18 -79.5 -40 -19.9 -19.7 -33.2 -44.5 -39.2 -73 -3.4 -16.5 -3.6 -43.6 -0.3 -59.5 6.2 -30.4 19.5 -54.7 41.6 -76 16 -15.4 32.6 -25.4 53.5 -32.4 31.5 -10.6 70 -9.8 101.4 1.9 30.4 11.4 58.1 35.8 74.3 65.5 21.9 40.2 22.8 95 2.2 136 -19.7 39.3 -55.4 66.7 -99.2 76.2 -12.3 2.6 -42.4 3.4 -54.8 1.3z m47.2 -41.9 c37 -9.5 66.2 -38.1 77.5 -76.1 2.3 -8 2.6 -10.7 2.7 -24.5 0.1 -13.2 -0.3 -16.8 -2.2 -24 -5.5 -19.9 -13.8 -34.6 -28.1 -49 -10.9 -11 -18.4 -16.4 -31.5 -22.5 -23.1 -10.9 -44.6 -12.7 -68.4 -5.9 -39.4 11.4 -69.6 45 -76.7 85.1 -3.5 20.2 -0.2 40 10 60.3 5.7 11.4 11 18.6 20.4 28.1 26.6 26.6 62.5 37.2 96.3 28.5z"/>
  <path d="M236.9 345 c-29.8 -3.5 -55.6 -20.6 -70.5 -46.7 -8.2 -14.3 -11.7 -28.7 -11.8 -47.8 -0.1 -14.8 1.3 -23.5 5.7 -35 8.7 -23.3 25.4 -41.4 47.8 -51.9 15 -7 20.5 -8.1 41.4 -8.1 19.6 0 24 0.8 38.7 6.6 25.5 10.2 46.5 34.5 53.4 61.8 6.1 23.8 3.6 49.7 -6.6 70.2 -17.8 36 -56.1 55.8 -98.1 50.9z m23 -41.5 c10.6 -2.5 18.8 -7.2 27.2 -15.5 9.1 -8.9 14.3 -18.3 16.5 -29.9 5.1 -26.7 -16.3 -55.6 -45.6 -61.6 -10.2 -2.1 -18.5 -0.8 -30.5 5 -14.1 6.7 -24.1 18 -29.7 33.1 -3.1 8.3 -3.1 22.5 0 30.8 6.8 18.5 20.8 31.8 39 37.2 9.1 2.7 14.4 2.9 23.1 0.9z"/>
  <path d="M237.5 294.6 c-12.4 -3 -23.7 -12 -28.9 -22.9 -5.7 -12.2 -5.8 -29.9 -0.3 -42.1 3.4 -7.3 12.2 -16.5 19.1 -19.9 7.2 -3.6 12.5 -4.6 22.7 -4.7 19.4 0 33.8 8.8 41.6 25.6 2.6 5.5 2.8 6.7 2.8 19.4 0 11.8 -0.3 14.2 -2.4 19.3 -2.8 7.1 -11.9 17.2 -18.9 21 -9.6 5.2 -24.5 7 -35.7 4.3z"/>
  <path d="M17 255 c-1.1 -1.1 -2 -3.3 -2 -5 0 -1.7 0.9 -3.9 2 -5 1.9 -1.9 3.3 -2 27.4 -2 24.1 0 25.5 0.1 28 2.1 3.2 2.5 3.5 7 0.6 9.9 -1.9 1.9 -3.3 2 -28 2 -24.7 0 -26.1 -0.1 -28 -2z"/>
  <path d="M426.7 255.2 c-2.3 -2.5 -2.1 -7.8 0.3 -10.2 1.9 -1.9 3.3 -2 27.5 -2 l25.6 0 2.4 2.5 c3 3 3.1 5.4 0.4 8.9 l-2 2.6 -26.3 0 c-24.2 0 -26.4 -0.1 -27.9 -1.8z"/>
  <path d="M2.2 155.7 l-2.2 -2.3 0 -73.8 c0 -46.2 0.4 -74.4 1 -75.6 0.5 -1 2.2 -2.2 3.7 -2.7 1.6 -0.5 34.9 -0.8 76.2 -0.7 l73.5 0.1 1.8 2.3 c2.4 3 2.3 7.3 -0.3 9.6 -2 1.8 -4.9 1.9 -72 2.2 l-69.9 0.2 0 69.5 c0 68.2 0 69.5 -2 71.5 -2.7 2.7 -7.1 2.6 -9.8 -0.3z"/>
  <path d="M487.9 156.1 l-2.4 -1.9 -0.3 -69.6 -0.2 -69.6 -68 0 c-40.7 0 -68.9 -0.4 -70.4 -1 -1.4 -0.5 -3.2 -2.1 -4.2 -3.5 -1.4 -2.1 -1.4 -3 -0.4 -5.5 0.7 -1.7 2.1 -3.5 3.1 -4 1.1 -0.6 30.3 -1 75.8 -1 72.8 0 74.1 0 76.1 2 1.1 1.1 2 2.6 2 3.3 0 0.6 0 34.4 0.1 75 0 68.6 -0.1 74 -1.7 75.8 -2.2 2.4 -6.5 2.4 -9.5 0z"/>
  <path d="M244.7 73.2 c-1.5 -1.6 -1.7 -5.1 -1.7 -27.9 0 -23.9 0.1 -26.1 1.8 -27.6 2.5 -2.3 7.8 -2.1 10.2 0.3 1.9 1.9 2 3.3 2 27.5 0 24.2 -0.1 25.6 -2 27.5 -2.6 2.6 -8.1 2.6 -10.3 0.2z"/>
 </g>
 <g fill="#ffffff">
  <path d="M223 405.4 c-42.7 -7.8 -80.3 -32.2 -104.4 -67.9 -6 -8.9 -15.6 -28.6 -19 -39 -23.7 -73.9 9.7 -153 79.6 -188.8 20.5 -10.5 40.3 -15.5 65.3 -16.4 45.6 -1.6 85.3 14.4 117.8 47.4 21.5 21.7 36.8 51 42.3 80.8 2.6 13.5 2.6 43.9 0.1 57.1 -5.7 31 -21.2 60 -43.6 82.4 -14.1 14 -25.3 22 -42.5 30.5 -14.3 7 -28.6 11.6 -43.2 14 -11.8 1.9 -41.8 1.8 -52.4 -0.1z m54.8 -16.3 c31.5 -6.7 58.3 -22.3 78.7 -45.7 20.1 -23 31.5 -49.6 34.6 -80.7 2.7 -26.2 -3.8 -57.4 -16.8 -80.6 -9.9 -17.9 -26 -36 -41.9 -47.3 -43.3 -30.8 -99.4 -35.1 -146.8 -11.2 -13 6.6 -22.7 13.5 -34 24.4 -22.1 21.3 -35.5 45.7 -41.6 75.9 -3.1 15.5 -3 37.4 0.4 53.6 5.8 28.4 19.2 53.2 39.1 73 22.2 22 47.8 34.8 79.5 40 11.8 2 36.5 1.3 48.8 -1.4z"/>
  <path d="M232.2 356.6 c-23.5 -4.5 -41.8 -14.1 -58.3 -30.5 -20.8 -20.9 -31.9 -47.3 -31.9 -76 0 -47.8 32.1 -90.1 78.4 -103.5 25 -7.3 50.6 -5.2 74.2 5.9 13.1 6.1 20.6 11.5 31.5 22.5 14.2 14.4 22.6 29 28.1 49 2 7.5 2.3 10.6 2.2 27 0 17.1 -0.2 19.2 -2.7 27.5 -11.4 38 -40.4 66.5 -77.5 76.2 -12.1 3.1 -32.7 4 -44 1.9z m26.4 -14.6 c31.5 -3.3 59.4 -22.7 73.4 -50.9 20.8 -41.7 7.1 -92.1 -32 -118.2 -7.6 -5.1 -18.4 -9.8 -29 -12.6 -9.3 -2.5 -33.8 -2.5 -43.5 0.1 -9.7 2.5 -24.4 9.6 -32.6 15.7 -17.6 13 -30.7 33.4 -35.6 55.3 -1.9 8.6 -2.1 26.8 -0.4 35.1 2.9 14.4 10.1 30.6 17.6 39.7 18.8 23 40.9 34.3 71.5 36.7 0.8 0 5.6 -0.4 10.6 -0.9z"/>
  <path d="M233.8 305.6 c-18.2 -5.4 -32.1 -18.7 -39 -37.2 -3.2 -8.6 -3.2 -28.2 0 -36.8 7.8 -21.1 25.7 -35.7 47.4 -38.8 37.5 -5.3 70.4 28.1 64.9 65.7 -3.5 23.1 -21.4 42.6 -44.2 48 -9.2 2.1 -19.9 1.8 -29.1 -0.9z m25.1 -14.1 c9 -2.2 15.3 -5.9 22.1 -13.1 8.2 -8.9 10.4 -14.8 10.5 -28.4 0 -9.4 -0.3 -11.1 -2.8 -16.4 -10.6 -22.8 -35.9 -31.9 -58.3 -20.9 -6.8 3.3 -15.7 12.6 -19 19.7 -11.2 24.6 2.6 52.8 29.1 59.2 6.8 1.7 10.9 1.6 18.4 -0.1z"/>
 </g>
</svg>